<svg id="Layer_1" enable-background="new 0 0 512.003 512.003" height="512" viewBox="0 0 512.003 512.003" width="512" xmlns="http://www.w3.org/2000/svg"><g><g clip-rule="evenodd" fill-rule="evenodd"><path d="m51.002 404.403c19.812 0 21.188 12 41 12 19.811 0 21.188-12 40.999-12 19.812 0 21.189 12 41 12 19.812 0 21.188-12 41-12s21.188 12 41 12c19.811 0 21.188-12 41-12 19.811 0 21.188 12 40.999 12 19.812 0 21.188-12 41-12 19.811 0 21.188 12 41 12s21.188-12 41-12c19.811 0 21.188 12 41 12v-56.755h-87.005-38.995-240-33.913-92.086v56.755c19.812 0 21.188-12 41.001-12z" fill="#e1eeff"/><path d="m92.002 416.403c-19.812 0-21.188-12-41-12s-21.188 12-41 12v50.002c19.812 0 21.188-12 41-12s21.188 12 41 12 21.188-12 41-12 21.188 12 41 12 21.188-12 41-12 21.188 12 41 12 21.188-12 41-12 21.188 12 41 12 21.188-12 41-12 21.188 12 41 12 21.188-12 41-12 21.188 12 41 12v-50.002c-19.811 0-21.188-12-41-12s-21.189 12-41 12c-19.812 0-21.188-12-41-12s-21.188 12-41 12c-19.811 0-21.188-12-40.999-12-19.812 0-21.189 12-41 12-19.812 0-21.188-12-41-12s-21.188 12-41 12-21.188-12-41-12c-19.813 0-21.19 12-41.001 12z" fill="#a0c8ff"/><path d="m92.001 466.405c-19.812 0-21.188-12-41-12s-21.188 12-41 12v15.598c0 11 9 20 20 20h452c11 0 20-9 20-20v-15.598c-19.812 0-21.188-12-41-12s-21.188 12-41 12-21.188-12-41-12-21.188 12-41 12-21.188-12-41-12-21.188 12-41 12-21.188-12-41-12-21.188 12-41 12-21.188-12-41-12-21.188 12-41 12z" fill="#60a4ff"/><path d="m10.001 359.648h92.087l-6.86-76.794c-.956-10.704-3.164-13.654-11.289-17.238l-13.098-5.778c-9.305-4.105-10.907-8.031-11.97-18.475l-4.543-51.272c-1.809-16.066-14.568-27.497-24.326-27.497h-20.001z" fill="#c68a65"/><path d="m95.228 282.854 6.86 76.794h33.913c0-15.574 12.626-28.2 28.2-28.2 1.445 0 2.864.109 4.25.319.626-1.955 1.395-3.832 2.296-5.619-.002-.003-.001-.004 0-.006l-5.421-234.44c-.346-6.804-1.786-15.053-5.319-22.633-5.658-12.138-16.684-22.558-37.181-22.576l-55.825-.05s-22.575-38.72-57.001-36.335v152.486h20.001c9.759 0 22.518 11.432 24.326 27.497l4.543 51.272c1.063 10.444 2.665 14.369 11.97 18.475l13.098 5.778c8.126 3.585 10.334 6.534 11.29 17.238z" fill="#ddb9a3"/><path d="m165.327 91.702 5.421 234.44c7.97-15.859 26.093-24.792 44.177-20.355 15.197-36.954 67.256-36.224 82.154 0 18.083-4.437 36.207 4.497 44.177 20.355l5.42-234.44c.346-6.804 1.786-15.053 5.319-22.633h-191.987c3.533 7.58 4.973 15.829 5.319 22.633z" fill="#a0c8ff"/><path d="m297.078 305.787c-14.899-36.224-66.957-36.954-82.154 0-18.083-4.437-36.207 4.497-44.177 20.355v.006c-.901 1.787-1.67 3.664-2.296 5.619-4.293-.649-8.481-.301-12.344.86-4.937 1.484-9.345 4.294-12.766 8.044-.01.011-.021.023-.031.034-4.542 5.006-7.309 11.651-7.309 18.943h240c0-15.574-12.626-28.2-28.2-28.2-1.445 0-2.864.109-4.25.319-.626-1.955-1.395-3.832-2.296-5.619v-.006c-7.969-15.858-26.093-24.792-44.177-20.355z" fill="#fff"/><path d="m346.676 91.702-5.42 234.44c.899 1.79 1.67 3.668 2.296 5.625 1.387-.21 2.806-.319 4.25-.319 15.574 0 28.2 12.625 28.2 28.2h38.995l8.28-92.687c1.154-12.919 3.819-16.479 13.626-20.805l15.809-6.974c11.231-4.955 13.164-9.693 14.447-22.298l5.481-61.884c2.183-19.39 17.583-33.188 29.361-33.188v-111.704c-34.426-2.385-57.001 36.335-57.001 36.335l-55.825.05c-20.497.018-31.523 10.438-37.181 22.576-3.533 7.58-4.972 15.829-5.318 22.633z" fill="#ddb9a3"/><path d="m436.901 246.156c-9.806 4.326-12.472 7.886-13.626 20.805l-8.28 92.687h87.005v-237.836c-11.778 0-27.178 13.798-29.361 33.188l-5.483 61.883c-1.283 12.606-3.217 17.343-14.447 22.298z" fill="#c68a65"/></g><g><path d="m502.693.132c-32.399-2.246-55.013 24.825-63.093 36.316l-50.435.045c-21.198.019-34.97 9.488-43.085 22.576h-180.16c-8.114-13.088-21.887-22.557-43.085-22.576l-50.434-.045c-8.078-11.49-30.684-38.543-63.091-36.316-5.242.363-9.309 4.722-9.309 9.977v471.895c0 16.542 13.458 30 30 30h452c16.542 0 30-13.458 30-30v-471.896c0-5.255-4.067-9.613-9.308-9.976zm-291.688 369.516c5.523 0 10-4.478 10-10s-4.477-10-10-10h-62.014c3.252-4.952 8.84-8.2 15.21-8.2.921 0 1.85.069 2.76.207 4.856.722 9.519-2.168 11.015-6.842 4.624-14.452 19.808-22.934 34.565-19.314 4.805 1.177 9.75-1.334 11.631-5.908 6.442-15.664 20.593-21.246 31.688-21.246 11.23 0 25.525 5.581 31.968 21.246 1.883 4.575 6.825 7.089 11.631 5.908 14.758-3.622 29.941 4.863 34.565 19.314 1.496 4.675 6.165 7.571 11.015 6.842.91-.138 1.839-.207 2.76-.207 6.342 0 11.936 3.252 15.196 8.2h-61.993c-5.523 0-10 4.478-10 10s4.477 10 10 10h190.997v35.766c-2.791-.835-5.077-2.139-7.79-3.69-5.701-3.262-12.795-7.32-25.26-7.32s-19.56 4.059-25.261 7.32c-4.75 2.717-8.181 4.68-15.33 4.68s-10.58-1.963-15.33-4.68c-5.701-3.262-12.795-7.32-25.26-7.32s-19.56 4.059-25.261 7.32c-4.75 2.717-8.181 4.68-15.329 4.68s-10.58-1.963-15.33-4.68c-5.701-3.262-12.795-7.32-25.261-7.32-12.465 0-19.56 4.059-25.26 7.32-4.75 2.717-8.181 4.68-15.33 4.68-7.148 0-10.58-1.963-15.329-4.68-5.701-3.262-12.795-7.32-25.261-7.32s-19.56 4.059-25.261 7.32c-4.75 2.717-8.181 4.68-15.329 4.68-7.149 0-10.581-1.963-15.33-4.68-5.701-3.262-12.795-7.32-25.26-7.32s-19.56 4.059-25.26 7.32c-4.75 2.717-8.181 4.68-15.33 4.68s-10.58-1.963-15.33-4.68c-5.701-3.262-12.795-7.32-25.261-7.32-12.465 0-19.56 4.059-25.26 7.32-2.713 1.552-4.998 2.856-7.79 3.69v-35.766zm280.996-20h-66.072l7.307-81.798c.85-9.523 1.499-9.81 7.702-12.546l15.808-6.974c15.369-6.781 18.81-15.217 20.359-30.435.004-.044.008-.087.012-.13l5.473-61.76c.939-8.078 4.936-14.728 9.411-19.001zm-472 0v-177.054h10c4.208 0 13.054 7.204 14.377 18.51l4.532 51.143c.004.043.008.086.012.129 1.323 13.001 4.451 20.687 17.882 26.612l13.098 5.778c4.75 2.096 4.75 2.096 5.364 8.978l5.887 65.904zm0 76.199c7.994-1.216 13.286-4.227 17.721-6.764 4.75-2.717 8.181-4.68 15.329-4.68s10.58 1.963 15.33 4.68c5.701 3.262 12.796 7.32 25.261 7.32s19.56-4.059 25.26-7.32c4.75-2.717 8.181-4.68 15.33-4.68s10.58 1.963 15.329 4.68c5.701 3.262 12.796 7.32 25.261 7.32s19.56-4.059 25.26-7.32c4.75-2.717 8.181-4.68 15.33-4.68 7.148 0 10.58 1.963 15.33 4.68 5.7 3.262 12.795 7.32 25.26 7.32s19.56-4.059 25.261-7.32c4.749-2.717 8.181-4.68 15.329-4.68 7.149 0 10.58 1.963 15.33 4.68 5.701 3.262 12.795 7.32 25.261 7.32 12.465 0 19.56-4.059 25.26-7.32 4.75-2.717 8.181-4.68 15.33-4.68 7.148 0 10.58 1.963 15.329 4.68 5.701 3.262 12.795 7.32 25.261 7.32 12.465 0 19.56-4.059 25.261-7.32 4.75-2.717 8.181-4.68 15.33-4.68s10.58 1.963 15.329 4.68c4.435 2.537 9.726 5.549 17.721 6.764v29.569c-2.791-.835-5.077-2.139-7.79-3.69-5.701-3.262-12.795-7.32-25.26-7.32s-19.56 4.059-25.261 7.32c-4.75 2.717-8.181 4.68-15.33 4.68s-10.58-1.963-15.33-4.68c-5.701-3.262-12.795-7.32-25.26-7.32s-19.56 4.059-25.261 7.32c-4.75 2.717-8.181 4.68-15.329 4.68s-10.58-1.963-15.33-4.68c-5.701-3.262-12.795-7.32-25.261-7.32-12.465 0-19.56 4.059-25.26 7.32-4.75 2.717-8.181 4.68-15.33 4.68-7.148 0-10.58-1.963-15.329-4.68-5.701-3.262-12.795-7.32-25.261-7.32s-19.56 4.059-25.261 7.32c-4.75 2.717-8.181 4.68-15.329 4.68-7.149 0-10.581-1.963-15.33-4.68-5.701-3.262-12.795-7.32-25.26-7.32s-19.56 4.059-25.26 7.32c-4.75 2.717-8.181 4.68-15.33 4.68s-10.58-1.963-15.33-4.68c-5.701-3.262-12.795-7.32-25.261-7.32-12.465 0-19.56 4.059-25.26 7.32-2.713 1.552-4.998 2.856-7.79 3.69v-29.569zm369.183-369.354 55.825-.05c3.554-.003 6.84-1.893 8.63-4.963.172-.296 15.508-26.151 38.362-30.774v93.038c-13.695 5.147-27.055 20.209-29.299 40.137-.009.079-.017.158-.023.236l-5.477 61.813c-1.069 10.474-1.849 11.154-8.529 14.102l-15.808 6.975c-13.362 5.894-18.112 12.956-19.55 29.064l-7.466 83.577h-21.178c-4.102-15.209-17.307-26.547-33.309-28.027l5.307-229.545c.277-5.243 1.253-11.853 3.942-17.951.305-.519.562-1.066.771-1.639 4.376-8.713 12.582-15.979 27.802-15.993zm-178.345 22.576v21.143c0 5.522 4.477 10 10 10s10-4.478 10-10v-21.143h55.451v23.243c0 5.522 4.477 10 10 10s10-4.478 10-10v-23.243h31.971c-.85 4.013-1.367 8.09-1.572 12.125-.004.092-.008.185-.01.276l-4.864 210.361c-8.569-5.197-18.698-7.794-29.052-7.035-2.497-4.245-5.503-8.053-8.924-11.373v-35.312c0-5.522-4.477-10-10-10s-10 4.478-10 10v23.134c-5.631-1.896-11.677-2.902-17.978-2.902-19.706 0-36.945 9.956-46.625 26.452-10.349-.753-20.478 1.844-29.047 7.04l-4.865-210.365c-.002-.092-.006-.185-.01-.276-.205-4.035-.721-8.112-1.572-12.125zm-152.476-27.589c1.791 3.07 5.076 4.96 8.63 4.963l55.824.05c15.219.014 23.425 7.279 27.801 15.991.209.574.467 1.123.772 1.642 2.688 6.097 3.664 12.707 3.941 17.95l5.307 229.543c-16.064 1.473-29.234 12.796-33.318 28.029h-16.087l-6.046-67.683c-1.26-14.11-5.442-20.306-17.212-25.497l-13.099-5.779c-5.031-2.22-5.24-2.312-6.051-10.272l-4.537-51.208c-.007-.079-.015-.157-.024-.236-2.45-21.761-19.695-36.378-34.264-36.378h-10v-131.874c22.723 4.667 38.2 30.482 38.363 30.759zm423.638 440.523h-452c-5.514 0-10-4.486-10-10v-6.154c7.994-1.216 13.286-4.227 17.721-6.764 4.75-2.717 8.181-4.68 15.329-4.68s10.58 1.963 15.33 4.68c5.701 3.262 12.796 7.32 25.261 7.32s19.56-4.059 25.26-7.32c4.75-2.717 8.181-4.68 15.33-4.68s10.58 1.963 15.329 4.68c5.701 3.262 12.796 7.32 25.261 7.32s19.56-4.059 25.26-7.32c4.75-2.717 8.181-4.68 15.33-4.68 7.148 0 10.58 1.963 15.33 4.68 5.7 3.262 12.795 7.32 25.26 7.32s19.56-4.059 25.261-7.32c4.749-2.717 8.181-4.68 15.329-4.68 7.149 0 10.58 1.963 15.33 4.68 5.701 3.262 12.795 7.32 25.261 7.32 12.465 0 19.56-4.059 25.26-7.32 4.75-2.717 8.181-4.68 15.33-4.68 7.148 0 10.58 1.963 15.329 4.68 5.701 3.262 12.795 7.32 25.261 7.32 12.465 0 19.56-4.059 25.261-7.32 4.75-2.717 8.181-4.68 15.33-4.68s10.58 1.963 15.329 4.68c4.435 2.537 9.726 5.549 17.721 6.764v6.154c-.003 5.513-4.488 10-10.003 10z"/><path d="m274.39 189.413c5.523 0 10-4.478 10-10v-27.601c0-5.522-4.477-10-10-10s-10 4.478-10 10v27.601c0 5.522 4.477 10 10 10z"/><path d="m220.839 219.412c5.523 0 10-4.478 10-10v-25.8c0-5.522-4.477-10-10-10s-10 4.478-10 10v25.8c0 5.522 4.477 10 10 10z"/><path d="m256.009 369.648c5.523 0 10-4.478 10-10s-4.477-10-10-10h-.007c-5.523 0-9.996 4.478-9.996 10s4.48 10 10.003 10z"/></g></g></svg>