<svg height="512pt" viewBox="0 -18 512 512" width="512pt" xmlns="http://www.w3.org/2000/svg"><path d="m0 70.621094v361.929687c0 11.707031 4.648438 22.933594 12.925781 31.210938 8.28125 8.277343 19.507813 12.929687 31.210938 12.929687h423.726562c24.375 0 44.136719-19.761718 44.136719-44.140625v-317.792969c0-24.375-19.761719-44.136718-44.136719-44.136718zm0 0" fill="#f3d55b"/><path d="m0 397.242188c0-24.378907 19.761719-44.140626 44.136719-44.140626 24.378906 0 44.140625 19.761719 44.140625 44.140626v-353.105469c0-24.375-19.761719-44.136719-44.140625-44.136719-24.375 0-44.136719 19.761719-44.136719 44.136719zm0 0" fill="#f29c1f"/><g fill="#802d40"><path d="m167.722656 158.898438h-17.652344c-4.875 0-8.828124-3.953126-8.828124-8.828126s3.953124-8.828124 8.828124-8.828124h17.652344c4.875 0 8.828125 3.953124 8.828125 8.828124s-3.953125 8.828126-8.828125 8.828126zm0 0"/><path d="m167.722656 203.035156h-17.652344c-4.875 0-8.828124-3.953125-8.828124-8.828125s3.953124-8.828125 8.828124-8.828125h17.652344c4.875 0 8.828125 3.953125 8.828125 8.828125s-3.953125 8.828125-8.828125 8.828125zm0 0"/><path d="m167.722656 247.171875h-17.652344c-4.875 0-8.828124-3.953125-8.828124-8.828125s3.953124-8.828125 8.828124-8.828125h17.652344c4.875 0 8.828125 3.953125 8.828125 8.828125s-3.953125 8.828125-8.828125 8.828125zm0 0"/><path d="m167.722656 291.308594h-17.652344c-4.875 0-8.828124-3.949219-8.828124-8.824219 0-4.878906 3.953124-8.828125 8.828124-8.828125h17.652344c4.875 0 8.828125 3.949219 8.828125 8.828125 0 4.875-3.953125 8.824219-8.828125 8.824219zm0 0"/><path d="m167.722656 335.449219h-17.652344c-4.875 0-8.828124-3.953125-8.828124-8.828125s3.953124-8.828125 8.828124-8.828125h17.652344c4.875 0 8.828125 3.953125 8.828125 8.828125s-3.953125 8.828125-8.828125 8.828125zm0 0"/><path d="m167.722656 379.585938h-17.652344c-4.875 0-8.828124-3.953126-8.828124-8.828126s3.953124-8.828124 8.828124-8.828124h17.652344c4.875 0 8.828125 3.953124 8.828125 8.828124s-3.953125 8.828126-8.828125 8.828126zm0 0"/></g><path d="m194.207031 423.722656c-4.875 0-8.828125-3.949218-8.828125-8.824218v-17.65625c0-4.875 3.953125-8.828126 8.828125-8.828126s8.828125 3.953126 8.828125 8.828126v17.65625c0 4.875-3.953125 8.824218-8.828125 8.824218zm0 0" fill="#d75e72"/><path d="m238.34375 423.722656c-4.875 0-8.828125-3.949218-8.828125-8.824218v-17.65625c0-4.875 3.953125-8.828126 8.828125-8.828126s8.828125 3.953126 8.828125 8.828126v17.65625c0 4.875-3.953125 8.824218-8.828125 8.824218zm0 0" fill="#d75e72"/><path d="m282.484375 423.722656c-4.878906 0-8.828125-3.949218-8.828125-8.824218v-17.65625c0-4.875 3.949219-8.828126 8.828125-8.828126 4.875 0 8.824219 3.953126 8.824219 8.828126v17.65625c0 4.875-3.949219 8.824218-8.824219 8.824218zm0 0" fill="#d75e72"/><path d="m326.621094 423.722656c-4.875 0-8.828125-3.949218-8.828125-8.824218v-17.65625c0-4.875 3.953125-8.828126 8.828125-8.828126s8.828125 3.953126 8.828125 8.828126v17.65625c0 4.875-3.953125 8.824218-8.828125 8.824218zm0 0" fill="#d75e72"/><path d="m370.757812 423.722656c-4.875 0-8.828124-3.949218-8.828124-8.824218v-17.65625c0-4.875 3.953124-8.828126 8.828124-8.828126s8.828126 3.953126 8.828126 8.828126v17.65625c0 4.875-3.953126 8.824218-8.828126 8.824218zm0 0" fill="#d75e72"/><path d="m414.898438 423.722656c-4.878907 0-8.828126-3.949218-8.828126-8.824218v-17.65625c0-4.875 3.949219-8.828126 8.828126-8.828126 4.875 0 8.824218 3.953126 8.824218 8.828126v17.65625c0 4.875-3.949218 8.824218-8.824218 8.824218zm0 0" fill="#d75e72"/><path d="m432.550781 248.761719v-20.832031c.007813-4.199219-2.945312-7.820313-7.0625-8.660157l-27.707031-5.542969c-2.964844-.636718-5.410156-2.714843-6.515625-5.535156l-.175781-.433594c-1.230469-2.785156-.976563-6 .679687-8.554687l15.640625-23.535156c2.335938-3.5 1.875-8.164063-1.101562-11.140625l-14.734375-14.730469c-2.976563-2.976563-7.640625-3.441406-11.140625-1.105469l-23.507813 15.667969c-2.554687 1.65625-5.769531 1.910156-8.554687.679687l-.433594-.175781c-2.816406-1.105469-4.894531-3.550781-5.53125-6.515625l-5.535156-27.699218c-.839844-4.113282-4.460938-7.066407-8.660156-7.0625h-20.835938c-4.195312-.003907-7.820312 2.949218-8.660156 7.0625l-5.542969 27.710937c-.636719 2.960937-2.714844 5.40625-5.535156 6.511719l-.429688.179687c-2.785156 1.226563-6 .972657-8.554687-.679687l-23.535156-15.644532c-3.5-2.335937-8.164063-1.871093-11.140626 1.105469l-14.734374 14.730469c-2.976563 2.976562-3.4375 7.640625-1.101563 11.140625l15.667969 23.507813c1.652344 2.554687 1.910156 5.769531.679687 8.554687l-.175781.433594c-1.105469 2.820312-3.554688 4.898437-6.515625 5.535156l-27.710937 5.542969c-4.113282.839844-7.066407 4.460937-7.058594 8.660156v20.832031c-.007813 4.199219 2.945312 7.820313 7.058594 8.660157l27.710937 5.542968c2.960937.636719 5.410156 2.714844 6.515625 5.535156l.175781.433594c1.230469 2.785156.972657 6-.679687 8.554688l-15.632813 23.523437c-2.335937 3.503907-1.875 8.164063 1.101563 11.140625l14.734375 14.734375c2.976562 2.976563 7.640625 3.4375 11.140625 1.101563l23.507812-15.667969c2.554688-1.652344 5.769532-1.90625 8.554688-.679687l.433594.175781c2.820312 1.109375 4.898437 3.554687 5.535156 6.515625l5.542968 27.710937c.839844 4.113281 4.460938 7.066407 8.660157 7.0625h20.832031c4.199219.003907 7.820312-2.949219 8.660156-7.0625l5.542969-27.710937c.636719-2.960938 2.714844-5.40625 5.535156-6.515625l.433594-.175781c2.78125-1.226563 6-.972657 8.554687.679687l23.523438 15.632813c3.5 2.335937 8.164062 1.875 11.140625-1.101563l14.734375-14.734375c2.976562-2.976562 3.4375-7.636719 1.101562-11.140625l-15.667968-23.507813c-1.652344-2.554687-1.910156-5.769531-.679688-8.554687l.175782-.429687c1.105468-2.820313 3.554687-4.898438 6.515624-5.535157l27.710938-5.542969c4.105469-.84375 7.054688-4.460937 7.050781-8.652343zm0 0" fill="#547580"/><path d="m361.929688 238.34375c0 24.378906-19.761719 44.140625-44.136719 44.140625s-44.136719-19.761719-44.136719-44.140625c0-24.375 19.761719-44.136719 44.136719-44.136719s44.136719 19.761719 44.136719 44.136719zm0 0" fill="#2c3e50"/><path d="m150.070312 441.378906c-4.875 0-8.828124-3.953125-8.828124-8.828125v-326.621093c0-4.875 3.953124-8.828126 8.828124-8.828126h26.480469c4.875 0 8.828125 3.953126 8.828125 8.828126s-3.953125 8.828124-8.828125 8.828124h-17.652343v317.792969c0 4.875-3.953126 8.828125-8.828126 8.828125zm0 0" fill="#d75e72"/><path d="m450.207031 423.722656h-317.792969c-4.875 0-8.828124-3.949218-8.828124-8.824218 0-4.878907 3.953124-8.828126 8.828124-8.828126h308.964844v-26.484374c0-4.875 3.953125-8.828126 8.828125-8.828126s8.828125 3.953126 8.828125 8.828126v35.3125c0 4.875-3.953125 8.824218-8.828125 8.824218zm0 0" fill="#802d40"/></svg>